<svg width="35" height="35" viewBox="0 0 50 50" fill="none" xmlns="http://www.w3.org/2000/svg">
<path d="M29.507 0.723802C52.6877 5.22959 54.5598 31.2734 43.3033 43.2523C34.3721 52.7538 16.8908 52.327 7.32515 41.2982C-7.44238 24.2716 0.201293 -4.96967 29.507 0.723802ZM25.896 47.7432C58.3539 47.7878 52.512 -0.842461 21.9909 1.8354C-9.04252 1.49951 -1.14726 48.9885 25.896 47.7432ZM5.92295 25.3516C8.30373 35.9851 15.8364 41.9737 26.3252 42.9981C16.8594 38.0172 10.8621 36.7274 7.26966 25.3126C7.15496 24.9786 7.23821 24.2957 6.6148 24.4738C6.13568 24.613 5.91925 25.1308 5.92295 25.3516ZM29.827 43.9222C30.7094 44.0113 31.0572 42.5805 30.0545 42.5805C29.1056 42.4914 28.693 43.9074 29.827 43.9222ZM24.4642 24.7708C25.1561 33.2683 26.4454 32.0027 20.6109 28.2763C17.9545 26.9995 15.25 25.8304 12.4197 24.9192C11.3819 24.5406 8.76435 23.7074 10.5846 22.4696C14.7801 19.5487 18.6982 16.3363 21.8578 12.4058C22.2925 11.5837 23.2304 12.2444 23.284 12.9106C23.3469 13.4228 23.456 14.2523 23.456 14.7701C23.3987 15.4251 23.4227 16.1155 23.4653 16.6704C23.5078 17.2215 24.0794 17.6001 24.6548 17.4591C26.9763 16.8893 32.6092 16.2751 36.5383 22.1708C38.4715 25.0714 35.7299 33.2089 35.3618 35.536C35.3063 35.8905 35.4081 36.527 34.8328 36.4936C34.25 36.4602 34.0244 35.8812 34.0262 35.3746C34.0281 34.2184 33.9707 33.0772 33.6377 31.9526C32.4002 27.7548 29.5643 25.166 24.8989 24.3736C24.4661 24.3013 24.4291 24.4441 24.4642 24.7708ZM34.3166 31.1379C34.583 32.0491 34.5719 32.9732 35.0362 32.9936C35.8779 31.4329 35.8354 28.4359 36.0463 26.6896C36.7825 20.5266 30.6502 17.2661 24.8545 18.5465C21.6524 19.1645 22.9751 15.3695 22.2777 13.7234C19.2938 16.9376 11.6594 22.7665 11.7204 23.1692C11.7389 23.2954 12.1644 23.3734 12.4068 23.4662C16.2711 24.9285 20.191 26.3018 23.3302 28.9926C24.5049 30.2286 23.6891 24.9768 23.6336 24.5759C23.3339 22.4937 23.2137 22.6571 25.354 23.134C30.1618 24.201 33.0902 26.9513 34.3166 31.1379ZM29.9028 5.76962C34.8587 8.19695 37.9997 8.8242 39.8811 14.3859C39.9403 14.5492 39.8977 14.8814 40.2233 14.7942C40.4749 14.7255 40.5877 14.475 40.5859 14.3655C39.339 9.18608 35.3933 6.26882 29.9028 5.76962Z" fill="#16A3B6"/>
</svg>
