<svg width="14" height="14" viewBox="0 0 32 32" fill="none" xmlns="http://www.w3.org/2000/svg">
<path fill-rule="evenodd" clip-rule="evenodd" d="M6.048 20.9045C6.15416 20.7981 6.28028 20.7137 6.41912 20.6561C6.55797 20.5985 6.70682 20.5688 6.85714 20.5688C7.00747 20.5688 7.15632 20.5985 7.29516 20.6561C7.43401 20.7137 7.56012 20.7981 7.66629 20.9045L16 29.2395L24.3337 20.9045C24.5483 20.6899 24.8394 20.5694 25.1429 20.5694C25.4463 20.5694 25.7374 20.6899 25.952 20.9045C26.1666 21.1191 26.2872 21.4101 26.2872 21.7136C26.2872 22.017 26.1666 22.308 25.952 22.5226L16.8091 31.6643C16.703 31.7707 16.5769 31.8551 16.438 31.9127C16.2992 31.9703 16.1503 32 16 32C15.8497 32 15.7008 31.9703 15.562 31.9127C15.4231 31.8551 15.297 31.7707 15.1909 31.6643L6.048 22.5226C5.94157 22.4164 5.85713 22.2903 5.79951 22.1515C5.7419 22.0127 5.71224 21.8639 5.71224 21.7136C5.71224 21.5632 5.7419 21.4144 5.79951 21.2756C5.85713 21.1368 5.94157 21.0107 6.048 20.9045ZM6.048 11.0955C6.15416 11.2019 6.28028 11.2863 6.41912 11.3439C6.55797 11.4015 6.70682 11.4312 6.85714 11.4312C7.00747 11.4312 7.15632 11.4015 7.29516 11.3439C7.43401 11.2863 7.56012 11.2019 7.66629 11.0955L16 2.76055L24.3337 11.0955C24.5483 11.3101 24.8394 11.4306 25.1429 11.4306C25.4463 11.4306 25.7374 11.3101 25.952 11.0955C26.1666 10.8809 26.2872 10.5899 26.2872 10.2864C26.2872 9.983 26.1666 9.69197 25.952 9.4774L16.8091 0.335714C16.703 0.229298 16.5769 0.144868 16.438 0.0872603C16.2992 0.0296529 16.1503 0 16 0C15.8497 0 15.7008 0.0296529 15.562 0.0872603C15.4231 0.144868 15.297 0.229298 15.1909 0.335714L6.048 9.4774C5.94157 9.58355 5.85713 9.70965 5.79951 9.84848C5.7419 9.98731 5.71224 10.1361 5.71224 10.2864C5.71224 10.4367 5.7419 10.5856 5.79951 10.7244C5.85713 10.8632 5.94157 10.9893 6.048 11.0955ZM0 16C0 15.6969 0.120408 15.4063 0.334735 15.192C0.549062 14.9777 0.839753 14.8573 1.14286 14.8573H30.8571C31.1602 14.8573 31.4509 14.9777 31.6653 15.192C31.8796 15.4063 32 15.6969 32 16C32 16.3031 31.8796 16.5937 31.6653 16.808C31.4509 17.0223 31.1602 17.1427 30.8571 17.1427H1.14286C0.839753 17.1427 0.549062 17.0223 0.334735 16.808C0.120408 16.5937 0 16.3031 0 16Z" fill="white"/>
</svg>
